<?xml version="1.0" encoding="utf-8"?>
<!-- Generator: Adobe Illustrator 22.1.0, SVG Export Plug-In . SVG Version: 6.00 Build 0)  -->
<svg version="1.1" id="Capa_1" xmlns="http://www.w3.org/2000/svg" xmlns:xlink="http://www.w3.org/1999/xlink" x="0px" y="0px"
	 viewBox="0 0 398.9 398.9" style="enable-background:new 0 0 398.9 398.9;" xml:space="preserve">
<style type="text/css">
	.st0{fill:url(#SVGID_1_);}
</style>
<g>
	<linearGradient id="SVGID_1_" gradientUnits="userSpaceOnUse" x1="2.359650e-04" y1="199.4524" x2="398.905" y2="199.4524">
		<stop  offset="0" style="stop-color:#07A4C1"/>
		<stop  offset="1" style="stop-color:#03B8AA"/>
	</linearGradient>
	<path class="st0" d="M340.4,132.3h-69.6c-5.5,0-10,4.5-10,10v100.1h-72l36.3-13.4c2.6-0.9,4.6-2.9,5.7-5.4l22.6-51.8
		c1.1-2.5,1.1-5.3,0.1-7.9l-22.3-53.3c-1-2.4-2.9-4.3-5.2-5.3l-54.1-23.6c-0.9-0.4-1.9-0.7-2.9-0.8L61,68.7l1.1-2.6
		c2.2-5.1-0.1-11-5.2-13.2c-5.1-2.2-11,0.1-13.2,5.2l-3.6,8.2l-6.5-0.7c-4.4-0.5-8.5,1.9-10.3,5.9L0.8,123.4
		c-1.8,4-0.7,8.7,2.7,11.6l5,4.3L1.6,155c-1.1,2.6-1.1,5.4,0,7.9c0.4,1.8,1.3,3.4,2.7,4.8L79,242.4H12c-5.5,0-10,4.5-10,10v39.3
		c0,7.7,3,14.9,8.4,20.3s12.7,8.4,20.3,8.4l14.4,0c4.4,15.2,18.4,26.4,35,26.4c16.6,0,30.6-11.2,35-26.4l10.4,0
		c4.4,15.2,18.4,26.4,35,26.4c16.6,0,30.6-11.2,35-26.4l95.6,0c4.3,15.2,18.4,26.4,35,26.4c16.7,0,30.7-11.2,35-26.5
		c21.4-1.5,37.8-19.4,37.8-42v-87.4C398.9,158.6,372.7,132.3,340.4,132.3z M177.6,106l27.1,11.8l-46.1,107l-27.9-12.2L177.6,106z
		 M233.5,167.7l-19.2,44l-33.5,12.4l38.7-89.9L233.5,167.7z M158.4,99.9l-45.1,102.9l-80.5-69l20-45.8L158.4,99.9z M22.4,157.5
		l2-4.6l82.5,70.8c0.8,0.6,1.6,1.2,2.5,1.6l39.4,17.2h-41.5L22.4,157.5z M96.5,310.4c0,9-7.4,16.4-16.4,16.4s-16.4-7.4-16.4-16.4
		S71.1,294,80.1,294S96.5,301.4,96.5,310.4z M176.9,310.4c0,9-7.4,16.4-16.4,16.4s-16.4-7.4-16.4-16.4s7.4-16.4,16.4-16.4
		S176.9,301.4,176.9,310.4z M260.8,300.4l-65.4,0c-4.4-15.2-18.4-26.4-35-26.4c-16.6,0-30.6,11.2-35,26.4l-10.4,0
		c-4.4-15.2-18.4-26.4-35-26.4c-16.6,0-30.6,11.2-35,26.4l-14.4,0c-2.3,0-4.5-0.9-6.2-2.6c-1.7-1.7-2.6-3.9-2.6-6.2v-29.3h238.8
		V300.4z M377.6,181c0.8,3.1,1.3,6.4,1.3,9.8v20.5h-69.3V181H377.6z M326,326.8c-9,0-16.4-7.4-16.4-16.4S317,294,326,294
		s16.4,7.4,16.4,16.4S335.1,326.8,326,326.8z M361,300.2c-4.4-15.1-18.4-26.2-34.9-26.2c-16.6,0-30.6,11.2-35,26.4l-10.2,0v-148
		h59.6c9.2,0,17.7,3.3,24.3,8.7h-65.1c-5.5,0-10,4.5-10,10v50.4c0,5.5,4.5,10,10,10h79.3v46.9C378.9,289.9,371.4,298.8,361,300.2z"
		/>
</g>
</svg>
