<?xml version="1.0" encoding="utf-8"?>
<!-- Generator: Adobe Illustrator 22.1.0, SVG Export Plug-In . SVG Version: 6.00 Build 0)  -->
<svg version="1.1" id="Layer_1" xmlns="http://www.w3.org/2000/svg" xmlns:xlink="http://www.w3.org/1999/xlink" x="0px" y="0px"
	 viewBox="0 0 512 512" style="enable-background:new 0 0 512 512;" xml:space="preserve">
<style type="text/css">
	.st0{fill:url(#SVGID_1_);}
</style>
<linearGradient id="SVGID_1_" gradientUnits="userSpaceOnUse" x1="-2.648149e-04" y1="256.0002" x2="512" y2="256.0002">
	<stop  offset="0" style="stop-color:#07A4C1"/>
	<stop  offset="1" style="stop-color:#03B8AA"/>
</linearGradient>
<path class="st0" d="M256,0C187.7,0,123.4,26.6,75,75c-100,100-100,262,0,362c100,100,262,100,362,0c48.3-48.3,75-112.6,75-181
	C512,114.5,397.5,0,256,0L256,0z M256,478.9c-122.9,0-222.9-100-222.9-222.9S133.1,33,256,33S479,133,479,256S379,478.9,256,478.9
	L256,478.9z M256,65C150.7,65,65.1,150.7,65.1,256S150.7,446.9,256,446.9S447,361.3,447,256S361.3,65,256,65L256,65z M272.5,413
	v-14.6c0-9.1-7.4-16.5-16.5-16.5c-9.1,0-16.5,7.4-16.5,16.5V413c-73.9-7.7-132.8-66.6-140.5-140.5h14.6c9.1,0,16.5-7.4,16.5-16.5
	c0-9.1-7.4-16.5-16.5-16.5H99c7.7-73.9,66.6-132.8,140.5-140.5v14.6c0,9.1,7.4,16.5,16.5,16.5c9.1,0,16.5-7.4,16.5-16.5V98.9
	c73.9,7.7,132.8,66.6,140.5,140.5h-14.6c-9.1,0-16.5,7.4-16.5,16.5c0,9.1,7.4,16.5,16.5,16.5h14.6
	C405.4,346.4,346.5,405.3,272.5,413L272.5,413z M272.5,183.7V256c0,14.7-17.9,22-28.2,11.7l-81-81c-6.4-6.4-6.4-16.9,0-23.4
	c6.4-6.4,16.9-6.4,23.4,0l52.8,52.8v-32.4c0-9.1,7.4-16.5,16.5-16.5C265.2,167.2,272.5,174.6,272.5,183.7L272.5,183.7z"/>
</svg>
