<?xml version="1.0" encoding="utf-8"?>
<!-- Generator: Adobe Illustrator 22.1.0, SVG Export Plug-In . SVG Version: 6.00 Build 0)  -->
<svg version="1.1" id="Capa_1" xmlns="http://www.w3.org/2000/svg" xmlns:xlink="http://www.w3.org/1999/xlink" x="0px" y="0px"
	 viewBox="0 0 512 512" style="enable-background:new 0 0 512 512;" xml:space="preserve">
<style type="text/css">
	.st0{fill:#FFFFFF;}
</style>
<g>
	<g>
		<path class="st0" d="M315.7,85.3V128c0,32.9-26.8,59.7-59.7,59.7s-59.7-26.8-59.7-59.7V85.3h-17.1V128c0,42.3,34.5,76.8,76.8,76.8
			c42.4,0,76.8-34.5,76.8-76.8V85.3H315.7z"/>
	</g>
</g>
<g>
	<g>
		<path class="st0" d="M495.9,437.7L450,253.9c-4.9-18.9-21.9-31.7-40.7-32l-102-7.9v-34.8h-17.1v42.7c0,4.5,3.4,8.2,7.9,8.5
			l110.6,8.6c0,0,0,0,0.1,0c11.7,0,21.9,7.9,24.8,19.1l45.9,183.8c0.8,3.4,1.3,6.9,1.3,10.4c0,23.5-19.1,42.7-42.7,42.7V512
			c32.9,0,59.7-26.8,59.7-59.7C497.7,447.4,497.1,442.5,495.9,437.7z"/>
	</g>
</g>
<g>
	<g>
		<path class="st0" d="M204.8,179.2V214l-101.4,7.9c0,0-0.1,0-0.1,0c-19.4,0-36.4,13.1-41.3,32.1L16.1,437.7
			c-3.9,15.5-1.5,31.5,6.7,45.2c8.2,13.7,21.2,23.4,36.7,27.2c4.8,1.2,9.6,1.8,14.5,1.8v-17.1c-3.5,0-7-0.4-10.4-1.3
			c-11.1-2.8-20.4-9.7-26.2-19.5s-7.6-21.2-4.8-32.3l45.9-183.7c2.9-11.3,13.1-19.2,25.5-19.2l109.9-8.5c4.4-0.3,7.9-4.1,7.9-8.5
			v-42.7H204.8z"/>
	</g>
</g>
<g>
	<g>
		<path class="st0" d="M290.1,0h-68.3c-23.5,0-42.7,19.1-42.7,42.7v51.2c0,4.7,3.8,8.5,8.5,8.5h136.5c4.7,0,8.5-3.8,8.5-8.5V42.7
			C332.8,19.1,313.7,0,290.1,0z M315.7,85.3H196.3V42.7c0-14.1,11.5-25.6,25.6-25.6h68.3c14.1,0,25.6,11.5,25.6,25.6L315.7,85.3
			L315.7,85.3z"/>
	</g>
</g>
<g>
	<g>
		<path class="st0" d="M290.1,51.2h-68.3c-23.5,0-42.7,19.1-42.7,42.7c0,4.7,3.8,8.5,8.5,8.5h136.5c4.7,0,8.5-3.8,8.5-8.5
			C332.8,70.3,313.7,51.2,290.1,51.2z M197.7,85.3c3.5-9.9,13-17.1,24.1-17.1h68.3c11.1,0,20.6,7.1,24.1,17.1H197.7z"/>
	</g>
</g>
<g>
	<g>
		<path class="st0" d="M256,128V93.9h-17.1v42.7c0,4.7,3.8,8.5,8.5,8.5h17.1V128H256z"/>
	</g>
</g>
<g>
	<g>
		<path class="st0" d="M179.2,460.8h-68.3v-17.1c0-14.1-11.5-25.6-25.6-25.6s-25.6,11.5-25.6,25.6v59.7c0,4.7,3.8,8.5,8.5,8.5h76.8
			c23.5,0,42.7-19.1,42.7-42.7C187.7,464.6,183.9,460.8,179.2,460.8z M145.1,494.9H76.8v-51.2c0-4.7,3.8-8.5,8.5-8.5
			s8.5,3.8,8.5,8.5v25.6c0,4.7,3.8,8.5,8.5,8.5h66.8C165.7,487.8,156.2,494.9,145.1,494.9z"/>
	</g>
</g>
<g>
	<g>
		<rect x="42.7" y="366.9" class="st0" width="59.7" height="17.1"/>
	</g>
</g>
<g>
	<g>
		<rect x="409.6" y="366.9" class="st0" width="59.7" height="17.1"/>
	</g>
</g>
<g>
	<g>
		<path class="st0" d="M409.6,256H102.4c-4.7,0-8.5,3.8-8.5,8.5v204.8c0,4.7,3.8,8.5,8.5,8.5h307.2c4.7,0,8.5-3.8,8.5-8.5V264.5
			C418.1,259.8,414.3,256,409.6,256z M401.1,460.8H110.9V273.1h290.1L401.1,460.8L401.1,460.8z"/>
	</g>
</g>
<g>
	<g>
		<rect x="366.9" y="426.7" class="st0" width="17.1" height="17.1"/>
	</g>
</g>
<g>
	<g>
		<rect x="332.8" y="426.7" class="st0" width="17.1" height="17.1"/>
	</g>
</g>
<g>
	<g>
		<path class="st0" d="M292.6,215.8L256,252.5l-36.6-36.6l-12.1,12.1l42.7,42.7c1.6,1.6,3.8,2.5,6,2.5s4.4-0.9,6-2.5l42.7-42.7
			L292.6,215.8z"/>
	</g>
</g>
<g>
	<g>
		<path class="st0" d="M426.7,418.1c-14.1,0-25.6,11.5-25.6,25.6v17.1h-68.3c-4.7,0-8.5,3.8-8.5,8.5c0,23.5,19.1,42.7,42.7,42.7
			h76.8c4.7,0,8.5-3.8,8.5-8.5v-59.7C452.3,429.6,440.8,418.1,426.7,418.1z M435.2,494.9h-68.3c-11.1,0-20.6-7.1-24.1-17.1h66.8
			c4.7,0,8.5-3.8,8.5-8.5v-25.6c0-4.7,3.8-8.5,8.5-8.5s8.5,3.8,8.5,8.5L435.2,494.9L435.2,494.9z"/>
	</g>
</g>
<g>
	<g>
		<rect x="102.4" y="315.7" class="st0" width="307.2" height="17.1"/>
	</g>
</g>
<g>
	<g>
		<path class="st0" d="M290.1,256h-68.3c-4.7,0-8.5,3.8-8.5,8.5v110.9c0,4.7,3.8,8.5,8.5,8.5h68.3c4.7,0,8.5-3.8,8.5-8.5V264.5
			C298.7,259.8,294.9,256,290.1,256z M281.6,366.9h-51.2v-93.9h51.2V366.9z"/>
	</g>
</g>
</svg>
