<?xml version="1.0" encoding="utf-8"?>
<!-- Generator: Adobe Illustrator 22.1.0, SVG Export Plug-In . SVG Version: 6.00 Build 0)  -->
<svg version="1.1" id="Capa_1" xmlns="http://www.w3.org/2000/svg" xmlns:xlink="http://www.w3.org/1999/xlink" x="0px" y="0px"
	 viewBox="0 0 465 465" style="enable-background:new 0 0 465 465;" xml:space="preserve">
<style type="text/css">
	.st0{fill:#FFFFFF;}
</style>
<g>
	<path class="st0" d="M313.4,305.6c-4.1,0-7.5,3.4-7.5,7.5V450H85v-62.5c0-4.1-3.4-7.5-7.5-7.5H15V15h290.9v136.9
		c0,4.1,3.4,7.5,7.5,7.5s7.5-3.4,7.5-7.5V7.5c0-4.1-3.4-7.5-7.5-7.5H7.5C3.4,0,0,3.4,0,7.5v380c0,0.3,0,0.5,0,0.7
		c0,0.2,0,0.4,0.1,0.5c0,0.1,0,0.1,0,0.2c0,0.2,0.1,0.4,0.2,0.6c0,0,0,0.1,0,0.1c0.1,0.2,0.1,0.4,0.2,0.6c0,0,0,0.1,0,0.1
		c0.1,0.2,0.2,0.4,0.3,0.6c0,0,0,0.1,0.1,0.1c0.1,0.2,0.2,0.3,0.3,0.5c0,0,0.1,0.1,0.1,0.1c0.1,0.2,0.2,0.3,0.3,0.4
		c0,0,0.1,0.1,0.1,0.2c0.2,0.2,0.3,0.4,0.5,0.5l70,70c0.2,0.2,0.4,0.3,0.5,0.5c0,0,0.1,0.1,0.2,0.1c0.1,0.1,0.3,0.2,0.4,0.3
		c0,0,0.1,0.1,0.1,0.1c0.2,0.1,0.3,0.2,0.5,0.3c0,0,0.1,0,0.1,0.1c0.2,0.1,0.4,0.2,0.6,0.3c0,0,0.1,0,0.1,0c0.2,0.1,0.4,0.2,0.6,0.2
		c0,0,0.1,0,0.1,0c0.2,0.1,0.4,0.1,0.6,0.2c0.1,0,0.1,0,0.2,0c0.2,0,0.4,0.1,0.5,0.1c0.2,0,0.5,0,0.7,0h235.9c4.1,0,7.5-3.4,7.5-7.5
		V313.1C320.9,309,317.5,305.6,313.4,305.6z M70,439.4L25.6,395H70V439.4z"/>
	<path class="st0" d="M263.4,405c4.1,0,7.5-3.4,7.5-7.5s-3.4-7.5-7.5-7.5H199c-4.1,0-7.5,3.4-7.5,7.5s3.4,7.5,7.5,7.5H263.4z"/>
	<path class="st0" d="M263.4,70H57.5c-4.1,0-7.5,3.4-7.5,7.5s3.4,7.5,7.5,7.5h205.9c4.1,0,7.5-3.4,7.5-7.5S267.5,70,263.4,70z"/>
	<path class="st0" d="M263.4,110H57.5c-4.1,0-7.5,3.4-7.5,7.5s3.4,7.5,7.5,7.5h205.9c4.1,0,7.5-3.4,7.5-7.5S267.5,110,263.4,110z"/>
	<path class="st0" d="M263.4,150H57.5c-4.1,0-7.5,3.4-7.5,7.5s3.4,7.5,7.5,7.5h205.9c4.1,0,7.5-3.4,7.5-7.5S267.5,150,263.4,150z"/>
	<path class="st0" d="M270.9,197.5c0-4.1-3.4-7.5-7.5-7.5H57.5c-4.1,0-7.5,3.4-7.5,7.5s3.4,7.5,7.5,7.5h205.9
		C267.5,205,270.9,201.6,270.9,197.5z"/>
	<path class="st0" d="M235.3,237.5c0-4.1-3.4-7.5-7.5-7.5H57.5c-4.1,0-7.5,3.4-7.5,7.5s3.4,7.5,7.5,7.5h170.3
		C231.9,245,235.3,241.6,235.3,237.5z"/>
	<path class="st0" d="M57.5,270c-4.1,0-7.5,3.4-7.5,7.5s3.4,7.5,7.5,7.5h102.9c4.1,0,7.5-3.4,7.5-7.5s-3.4-7.5-7.5-7.5H57.5z"/>
	<path class="st0" d="M454.9,91c-6.5-6.5-15.2-10.1-24.4-10.1s-17.9,3.6-24.4,10.1l-23.3,23.3h0h0l-21.2,21.2h0c0,0,0,0,0,0
		L210,287.1c-0.2,0.2-0.4,0.4-0.6,0.7c0,0.1-0.1,0.1-0.1,0.2c-0.1,0.2-0.3,0.4-0.4,0.6c0,0,0,0.1-0.1,0.1l-44.2,75
		c-1.9,2.2-2.9,5-2.9,8c0,3.3,1.3,6.5,3.7,8.8s5.5,3.7,8.8,3.7c2.9,0,5.7-1,8-2.9l75-44.2c0,0,0.1,0,0.1-0.1
		c0.2-0.1,0.4-0.2,0.6-0.4c0.1,0,0.1-0.1,0.2-0.1c0.2-0.2,0.5-0.4,0.7-0.6l151.6-151.6c0,0,0,0,0,0s0,0,0,0l21.2-21.2h0h0l23.3-23.3
		C468.4,126.3,468.4,104.4,454.9,91z M405.1,168.4l-27.6-27.6l10.6-10.6l27.6,27.6L405.1,168.4z M253.4,320l-27.6-27.6l141-141
		l27.6,27.6L253.4,320z M210.1,347.4l-11.7-11.7l18.3-31.2l24.5,24.5L210.1,347.4z M181.8,364.1l8.9-15l6.2,6.2L181.8,364.1z
		 M444.3,129.1l-18,18l-27.6-27.6l18-18c3.7-3.7,8.6-5.7,13.8-5.7s10.1,2,13.8,5.7c3.7,3.7,5.7,8.6,5.7,13.8S448,125.5,444.3,129.1z
		"/>
</g>
</svg>
