<?xml version="1.0" encoding="utf-8"?>
<!-- Generator: Adobe Illustrator 22.1.0, SVG Export Plug-In . SVG Version: 6.00 Build 0)  -->
<svg version="1.1" id="Capa_1" xmlns="http://www.w3.org/2000/svg" xmlns:xlink="http://www.w3.org/1999/xlink" x="0px" y="0px"
	 viewBox="0 0 512 512" style="enable-background:new 0 0 512 512;" xml:space="preserve">
<style type="text/css">
	.st0{fill:#FFFFFF;}
</style>
<g>
	<g>
		<path class="st0" d="M452.8,234.1c4,0,7.9-1.5,10.9-4.5l43.7-43.7c6-6,6-15.8,0-21.9L354.4,10.9c-6-6-15.8-6-21.9,0l-43.7,43.7
			c-6,6-6,15.8,0,21.9l4.2,4.2L265,90c-2.8,0.9-5.5,2-8.2,3.3L219,80.7l4.2-4.2c6-6,6-15.8,0-21.9l-43.7-43.7c-6-6-15.8-6-21.9,0
			L4.5,164c-6,6-6,15.8,0,21.9l43.7,43.7c6,6,15.8,6,21.9,0l4.2-4.2l10.9,32.8l-15.1,15.1c-18.1,18.1-18.1,47.5,0,65.6
			c8.4,8.4,19.2,12.9,30.2,13.5c0.6,11.4,5.4,22.1,13.5,30.2c8.4,8.4,19.2,12.9,30.2,13.5c0.6,11.4,5.4,22.1,13.5,30.2
			c8.4,8.4,19.2,12.9,30.2,13.5c0.6,11,5.1,21.9,13.5,30.2c14.5,14.5,35.8,17.2,52.8,9.1l12.8,12.8c18.1,18.1,47.5,18.1,65.6,0
			c8.2-8.2,12.9-18.8,13.5-30.2c11-0.6,21.8-5.1,30.2-13.5c8.4-8.4,12.9-19.2,13.5-30.2c11-0.6,21.8-5.1,30.2-13.5
			c8.4-8.4,12.9-19.2,13.5-30.2c11.4-0.6,22.1-5.4,30.2-13.5c18.1-18.1,18.1-47.5,0-65.6l-17.3-17.3v-45.1
			C448.4,233.6,450.6,234.1,452.8,234.1z M274.7,119.4l42.7-14.2c2.8,2.8,96.2,96.2,98,98v43.7L310.7,142.1c-6-6-15.8-6-21.9,0
			l-43.7,43.7c-6,6-15.8,6-21.9,0c-6-6-6-15.8,0-21.9l33.4-33.4C261.7,125.5,267.9,121.6,274.7,119.4z M59.2,196.8l-21.9-21.9
			L168.5,43.7l21.9,21.9C179.8,76.2,64.2,191.8,59.2,196.8z M92,317.1c-6-6-6-15.8,0-21.9l21.9-21.9c6-6,15.8-6,21.9,0
			c6,6,6,15.8,0,21.9l-21.9,21.9C107.8,323.1,98,323.1,92,317.1z M135.7,360.8c-6-6-6-15.8,0-21.9l21.9-21.9c6-6,15.8-6,21.9,0
			c6,6,6,15.8,0,21.9l-21.9,21.9C151.6,366.8,141.8,366.8,135.7,360.8z M179.5,404.5c-6-6-6-15.8,0-21.9l21.9-21.9
			c6-6,15.8-6,21.9,0c6,6,6,15.8,0,21.9l-21.9,21.9C195.3,410.6,185.5,410.6,179.5,404.5z M266.9,426.4l-21.9,21.9c0,0,0,0,0,0l0,0
			c-6,6-15.8,6-21.9,0c-6-6-6-15.8,0-21.9l21.9-21.9c6-6,15.8-6,21.9,0C273,410.6,273,420.4,266.9,426.4z M310.7,470.1
			c-6,6-15.8,6-21.9,0l-10.9-10.9l10.9-10.9c3.8-3.8,6.8-8.1,9.1-12.8l12.8,12.8C316.7,454.3,316.7,464.1,310.7,470.1z M441.9,338.9
			c-6,6-15.8,6-21.9,0l-87.5-87.5c-6-6-15.8-6-21.9,0c-3,3-4.5,7-4.5,10.9c0,4,1.5,7.9,4.5,10.9l87.5,87.5c6,6,6,15.8,0,21.9
			c-6,6-15.8,6-21.9,0l-87.5-87.5c-6-6-15.8-6-21.9,0c-3,3-4.5,7-4.5,10.9s1.5,7.9,4.5,10.9l87.5,87.5c6,6,6,15.8,0,21.9
			c-6,6-15.8,6-21.9,0l-43.7-43.7c-8.4-8.4-19.2-12.9-30.2-13.5c-0.6-11-5.1-21.9-13.5-30.2c-8.4-8.4-19.2-12.9-30.2-13.5
			c-0.6-11.4-5.4-22.1-13.5-30.2c-8.4-8.4-19.2-12.9-30.2-13.5c-0.6-11-5.1-21.9-13.5-30.2c-12.4-12.4-30.2-16.3-45.9-11.7L98.8,201
			l95.8-95.8l32.8,10.9l-26,26c-18.1,18.1-18.1,47.5,0,65.6c18.1,18.1,47.5,18.1,65.6,0l32.8-32.8c4.1,4.1,65.8,65.8,142.1,142.1
			C447.9,323.1,447.9,332.9,441.9,338.9z M321.6,65.6l21.9-21.9l131.2,131.2l-21.9,21.9C449.1,193.1,329.3,73.3,321.6,65.6z"/>
	</g>
</g>
</svg>
