<?xml version="1.0" encoding="utf-8"?>
<!-- Generator: Adobe Illustrator 22.1.0, SVG Export Plug-In . SVG Version: 6.00 Build 0)  -->
<svg version="1.1" id="Layer_1" xmlns="http://www.w3.org/2000/svg" xmlns:xlink="http://www.w3.org/1999/xlink" x="0px" y="0px"
	 viewBox="0 0 512 512" style="enable-background:new 0 0 512 512;" xml:space="preserve">
<style type="text/css">
	.st0{fill:#FFFFFF;}
</style>
<g>
	<g>
		<path class="st0" d="M449.4,0H62.6C45.9,0,32.3,13.6,32.3,30.3v451.4c0,16.7,13.6,30.3,30.3,30.3h386.8
			c16.7,0,30.3-13.6,30.3-30.3V30.3C479.7,13.6,466.1,0,449.4,0z M56.5,30.3c0-3.3,2.7-6.1,6.1-6.1h386.8c3.3,0,6.1,2.7,6.1,6.1
			v105.1H56.5V30.3z M173.4,487.8H62.6c-3.3,0-6.1-2.7-6.1-6.1V335.8h116.8V487.8z M173.4,311.5H56.5V159.7h116.8V311.5z
			 M314.4,487.8H197.6v-152h116.8V487.8z M314.4,311.5H197.6V159.7h116.8V311.5z M455.5,481.7c0,3.3-2.7,6.1-6.1,6.1H338.6V159.7
			h116.8V481.7z"/>
	</g>
</g>
<g>
	<g>
		<path class="st0" d="M144.9,223.5h-17.8v-17.9c0-6.7-5.4-12.1-12.1-12.1s-12.1,5.4-12.1,12.1v17.9H85c-6.7,0-12.1,5.4-12.1,12.1
			s5.4,12.1,12.1,12.1h17.8v17.9c0,6.7,5.4,12.1,12.1,12.1s12.1-5.4,12.1-12.1v-17.9h17.8c6.7,0,12.1-5.4,12.1-12.1
			S151.6,223.5,144.9,223.5z"/>
	</g>
</g>
<g>
	<g>
		<path class="st0" d="M286.6,223.5h-61.1c-6.7,0-12.1,5.4-12.1,12.1s5.4,12.1,12.1,12.1h61.1c6.7,0,12.1-5.4,12.1-12.1
			S293.3,223.5,286.6,223.5z"/>
	</g>
</g>
<g>
	<g>
		<path class="st0" d="M132.1,411.8l14.6-14.6c4.7-4.7,4.7-12.4,0-17.1c-4.7-4.7-12.4-4.7-17.1,0l-14.6,14.6L100.3,380
			c-4.7-4.7-12.4-4.7-17.1,0c-4.7,4.7-4.7,12.4,0,17.1l14.6,14.6l-14.6,14.6c-4.7,4.7-4.7,12.4,0,17.1c2.4,2.4,5.5,3.6,8.6,3.6
			c3.1,0,6.2-1.2,8.6-3.6l14.6-14.6l14.6,14.6c2.4,2.4,5.5,3.6,8.6,3.6s6.2-1.2,8.6-3.6c4.7-4.7,4.7-12.4,0-17.1L132.1,411.8z"/>
	</g>
</g>
<g>
	<g>
		<path class="st0" d="M287.8,380c-4.7-4.7-12.4-4.7-17.1,0l-46.4,46.4c-4.7,4.7-4.7,12.4,0,17.1c2.4,2.4,5.5,3.6,8.6,3.6
			s6.2-1.2,8.6-3.6l46.4-46.4C292.5,392.4,292.5,384.8,287.8,380z"/>
	</g>
</g>
<g>
	<g>
		<circle class="st0" cx="232.8" cy="388.6" r="10.3"/>
	</g>
</g>
<g>
	<g>
		<circle class="st0" cx="279.2" cy="435" r="10.3"/>
	</g>
</g>
<g>
	<g>
		<path class="st0" d="M427.7,290.4h-62c-6.7,0-12.1,5.4-12.1,12.1c0,6.7,5.4,12.1,12.1,12.1h62c6.7,0,12.1-5.4,12.1-12.1
			C439.8,295.9,434.4,290.4,427.7,290.4z"/>
	</g>
</g>
<g>
	<g>
		<path class="st0" d="M427.7,332.7h-62c-6.7,0-12.1,5.4-12.1,12.1S359,357,365.7,357h62c6.7,0,12.1-5.4,12.1-12.1
			C439.8,338.2,434.4,332.7,427.7,332.7z"/>
	</g>
</g>
</svg>
