<?xml version="1.0" encoding="utf-8"?>
<!-- Generator: Adobe Illustrator 22.1.0, SVG Export Plug-In . SVG Version: 6.00 Build 0)  -->
<svg version="1.1" id="Capa_1" xmlns="http://www.w3.org/2000/svg" xmlns:xlink="http://www.w3.org/1999/xlink" x="0px" y="0px"
	 viewBox="0 0 480 480" style="enable-background:new 0 0 480 480;" xml:space="preserve">
<style type="text/css">
	.st0{fill:#FFFFFF;}
</style>
<g>
	<g>
		<path class="st0" d="M344,336h-48c-2.1,0-4.2,0.8-5.7,2.3L240,388.7l-50.3-50.3c-1.5-1.5-3.5-2.3-5.7-2.3h-48
			c-69.5,0-120,50.8-120,120.9V472c0,4.4,3.6,8,8,8s8-3.6,8-8v-15.1C32,396.1,75.7,352,136,352h44.7l53.7,53.7
			c3.1,3.1,8.2,3.1,11.3,0l53.7-53.7H344c60.3,0,104,44.1,104,104.9V472c0,4.4,3.6,8,8,8s8-3.6,8-8v-15.1
			C464,386.8,413.5,336,344,336z"/>
	</g>
</g>
<g>
	<g>
		<path class="st0" d="M382.4,110.2c-4.4-22.9-15.8-43.8-32.7-59.8C321.6,19.2,281.9,1,240,0c-41.9,1-81.6,19.2-109.7,50.3
			c-53.9,47-36.4,154.9-34.2,167.1c1.8,9.9,2.7,27.9-11.4,36.2c-7.4,4.3-15.2,7.9-23.2,10.8c-4.2,1.4-6.5,5.9-5.1,10.1
			c0.4,1.2,1.1,2.2,1.9,3.1c15.5,16.8,37.2,26.6,60.1,27.2c3.9,0.1,7.7-0.3,11.5-1.1c4.3-1.1,6.9-5.5,5.7-9.7
			c-1.1-4.2-5.4-6.8-9.6-5.8c-16.9,2.4-34-2.6-47-13.7c4.7-2.1,9.4-4.5,13.9-7.2c16.3-9.7,23.2-29,19-52.8
			c-7.4-40.9-9.5-119.2,29.3-152.5c0.3-0.3,0.6-0.6,0.9-0.9C142.5,60.7,180.7,16,240,16s97.5,44.7,97.9,45.1
			c0.3,0.3,0.6,0.7,0.9,0.9c14.6,13.8,24.4,32,28,51.7c0.9,3.6,4.1,6.1,7.8,6.2c0.6,0,1.2-0.1,1.9-0.2
			C380.7,118.7,383.4,114.4,382.4,110.2z"/>
	</g>
</g>
<g>
	<g>
		<path class="st0" d="M421.6,266.4c-0.9-0.9-1.9-1.5-3.1-1.9c-7.9-2.8-15.6-6.3-22.9-10.5c-3.8-2.2-8.7-1-11,2.8s-1,8.7,2.8,11
			c4.3,2.5,8.8,4.8,13.4,6.9c-13,11.1-30.1,16.1-47.1,13.7c-4.3-1.1-8.6,1.6-9.7,5.9c-1.1,4.3,1.6,8.6,5.9,9.7v0
			c3.8,0.8,7.6,1.2,11.5,1.1c22.9-0.6,44.6-10.4,60.1-27.2C424.8,274.6,424.8,269.5,421.6,266.4z"/>
	</g>
</g>
<g>
	<g>
		<path class="st0" d="M384,144h-31.5c-0.2,0-0.3-0.1-0.5-0.1h-31.9V112c0-4.5-3.6-8.1-8.1-8.1s-8.1,3.6-8.1,8.1v31.9h-31.8V112
			c0-4.5-3.6-8.1-8.1-8.1s-8.1,3.6-8.1,8.1v31.9h-31.8V112c0-4.5-3.6-8.1-8.1-8.1s-8.1,3.6-8.1,8.1v31.9h-31.8V112
			c0-4.5-3.6-8.1-8.1-8.1s-8.1,3.6-8.1,8.1v31.9H128c-4.5,0-8.1,3.6-8.1,8.1c0,0.2,0,0.3,0,0.5l4,66.2
			c3.7,70.2,50,117.4,115.2,117.4h1.7c17.5,0.1,34.9-3.7,50.7-11.2c4-1.9,5.7-6.8,3.8-10.8c-1.9-4-6.8-5.7-10.8-3.8
			c-13.6,6.5-28.6,9.7-43.7,9.6h-1.6c-56,0-95.8-41-99.1-102.1l-3.5-57.6h206.8l-3.5,57.6c-0.3,4.5,3.1,8.3,7.6,8.6s8.3-3.1,8.6-7.6
			l3.6-58.7H384c4.4,0,8,3.6,8,8v48c0,4.4-3.6,8-8,8s-8,3.6-8,8s3.6,8,8,8c13.3,0,24-10.7,24-24v-48C408,154.7,397.3,144,384,144z"
			/>
	</g>
</g>
<g>
	<g>
		<path class="st0" d="M376,175.9c-4.5,0-8.1,3.6-8.1,8.1c-0.1,48.5-39.4,87.8-87.9,87.9h-1.1c-4.5-17.2-22-27.4-39.2-23
			s-27.4,22-23,39.2c4.5,17.2,22,27.4,39.2,23c11.2-2.9,20-11.7,23-23h1.1c57.5-0.1,104-46.6,104.1-104.1
			C384.1,179.5,380.5,175.9,376,175.9z M248,295.9c-8.8,0-15.9-7.1-15.9-15.9s7.1-15.9,15.9-15.9s15.9,7.1,15.9,15.9
			C263.9,288.8,256.8,295.9,248,295.9z"/>
	</g>
</g>
</svg>
